<svg width="30" height="30" viewBox="0 0 30 30" fill="none" xmlns="http://www.w3.org/2000/svg">
<g clip-path="url(#clip0_379_1019)">
<path d="M5.2477 0.470886C2.40118 0.470886 0.109253 2.76281 0.109253 5.60934V24.3325C0.109253 27.179 2.40118 29.4709 5.2477 29.4709H19.0282L29.1093 14.9745L19.0282 0.470915L5.2477 0.470886ZM12.9644 5.76521H16.2387C16.4397 5.76521 16.555 5.83873 16.555 6.01171V24.057C16.555 24.1798 16.4971 24.2536 16.3248 24.2536H14.544C14.4299 24.2536 14.3437 24.1551 14.3437 24.0814V17.4005H12.9064L8.91438 24.0814C8.85707 24.2043 8.74235 24.2536 8.57 24.2536H6.53092C6.30182 24.2536 6.15816 24.0814 6.30165 23.8594L10.6951 17.0553C8.34073 16.1678 7.0194 14.3682 7.0194 11.9277C7.0194 7.86003 9.74807 5.76521 12.9644 5.76521ZM12.8783 7.34209C11.1264 7.34209 9.40285 8.5993 9.40285 11.6812C9.40285 14.6395 11.2411 15.8228 13.1366 15.8228H14.3437V7.34209H12.8783Z" fill="#F00909"/>
<path fill-rule="evenodd" clip-rule="evenodd" d="M12.9644 5.76521H16.2387C16.4397 5.76521 16.555 5.83873 16.555 6.01171V24.057C16.555 24.1798 16.4971 24.2536 16.3248 24.2536H14.544C14.4299 24.2536 14.3437 24.1551 14.3437 24.0814V17.4005H12.9064L8.91438 24.0814C8.85707 24.2043 8.74235 24.2536 8.57 24.2536H6.53092C6.30182 24.2536 6.15816 24.0814 6.30165 23.8594L10.6951 17.0553C8.34073 16.1678 7.0194 14.3682 7.0194 11.9277C7.0194 7.86003 9.74807 5.76521 12.9644 5.76521ZM9.40285 11.6812C9.40285 8.5993 11.1264 7.34209 12.8783 7.34209H14.3437V15.8228H13.1366C11.2411 15.8228 9.40285 14.6395 9.40285 11.6812Z" fill="white"/>
</g>
<defs>
<clipPath id="clip0_379_1019">
<rect width="29" height="29" fill="white" transform="translate(0.109253 0.470886)"/>
</clipPath>
</defs>
</svg>
