<?xml version="1.0" encoding="UTF-8"?> <svg xmlns="http://www.w3.org/2000/svg" width="165" height="25" viewBox="0 0 165 25" fill="none"> <path d="M0.112 24V1.216H18.384V6.048H5.04V10.144H14.64V14.944H5.04V19.136H18.384V24H0.112ZM19.9085 24L29.9245 1.216H34.5325L44.5805 24H39.2365L38.0525 21.376H26.3725L25.2525 24H19.9085ZM28.3565 16.672H36.1005L32.2285 7.36L28.3565 16.672ZM45.2695 20.704L48.2455 16.576C51.6375 18.976 54.3575 19.84 56.5655 19.84C59.1575 19.84 60.7575 18.848 60.7575 17.856C60.7575 14.048 45.6535 15.488 45.6535 7.52C45.6535 3.552 49.3975 0.447998 54.6455 0.447998C57.5895 0.447998 61.0455 1.44 64.8855 3.904L62.1335 8.064C59.0615 6.112 56.4055 5.344 54.3575 5.344C52.0215 5.344 50.5815 6.336 50.5815 7.328C50.5815 10.24 65.7175 9.28 65.7175 17.76C65.7175 21.504 61.9735 24.768 56.3735 24.768C53.1415 24.768 49.3655 23.552 45.2695 20.704ZM75.3008 24V18.464L66.5648 1.216H72.1328L77.7648 12.832L83.4288 1.216H88.9648L80.1968 18.464V24H75.3008ZM91.1745 24V1.216H100.807C107.111 1.216 112.167 6.336 112.167 12.64C112.167 18.88 107.111 24 100.807 24H91.1745ZM96.1025 19.136H100.999C104.519 19.136 107.271 16.192 107.271 12.64C107.271 9.024 104.519 6.08 100.999 6.08H96.1025V19.136ZM114.177 12.576C114.177 5.92 119.649 0.447998 126.337 0.447998C133.057 0.447998 138.529 5.92 138.529 12.576C138.529 19.328 133.057 24.768 126.337 24.768C119.649 24.768 114.177 19.328 114.177 12.576ZM133.601 12.576C133.601 8.64 130.369 5.344 126.337 5.344C122.369 5.344 119.105 8.64 119.105 12.576C119.105 16.608 122.369 19.872 126.337 19.872C130.369 19.872 133.601 16.608 133.601 12.576ZM140.552 12.576C140.552 5.92 146.024 0.447998 152.712 0.447998C159.432 0.447998 164.904 5.92 164.904 12.576C164.904 19.328 159.432 24.768 152.712 24.768C146.024 24.768 140.552 19.328 140.552 12.576ZM159.976 12.576C159.976 8.64 156.744 5.344 152.712 5.344C148.744 5.344 145.48 8.64 145.48 12.576C145.48 16.608 148.744 19.872 152.712 19.872C156.744 19.872 159.976 16.608 159.976 12.576Z" fill="url(#paint0_linear_1_536)"></path> <defs> <linearGradient id="paint0_linear_1_536" x1="3.51825" y1="-8.99999" x2="193.028" y2="43.0331" gradientUnits="userSpaceOnUse"> <stop stop-color="#767CFF"></stop> <stop offset="1" stop-color="#BC87FF"></stop> </linearGradient> </defs> </svg> 