<?xml version="1.0" encoding="UTF-8"?> <svg xmlns="http://www.w3.org/2000/svg" width="170" height="170" viewBox="0 0 170 170" fill="none"> <g filter="url(#filter0_d_3_255)"> <rect x="30" y="26" width="110" height="110" rx="22" fill="white"></rect> </g> <path d="M78.7005 102.725C77.4505 102.725 76.5755 102.3 76.0505 101.9C75.0505 101.175 73.5005 99.2999 74.4755 95.0999L75.9004 88.9499C76.0254 88.4249 75.7504 87.4749 75.3754 87.0749L70.4005 82.0999C67.7755 79.4749 68.0005 77.1999 68.3505 76.0749C68.7005 74.9499 69.8504 72.9749 73.5004 72.3499L79.8755 71.2999C80.3505 71.2249 81.1255 70.6499 81.3255 70.2249L84.8505 63.1749C86.5505 59.7749 88.8005 59.2749 90.0005 59.2749C91.2005 59.2749 93.4505 59.7749 95.1505 63.1749L98.6755 70.2249C98.9005 70.6499 99.6504 71.2249 100.125 71.2999L106.5 72.3499C110.15 72.9499 111.3 74.9499 111.65 76.0749C112 77.1999 112.225 79.4749 109.6 82.0999L104.625 87.0749C104.25 87.4499 103.975 88.4249 104.1 88.9499L105.525 95.0999C106.5 99.3249 104.95 101.175 103.95 101.9C102.95 102.625 100.725 103.55 96.9755 101.325L91.0004 97.7749C90.5004 97.4749 89.4504 97.4749 88.9504 97.7749L82.9755 101.325C81.2505 102.375 79.8005 102.725 78.7005 102.725ZM90.0005 63.0249C89.6005 63.0249 88.8755 63.4999 88.2005 64.8499L84.6755 71.8999C83.9255 73.4249 82.1505 74.7249 80.4755 74.9999L74.1005 76.0499C72.6755 76.2999 72.0255 76.8249 71.9005 77.2249C71.7755 77.6249 72.0004 78.4249 73.0254 79.4499L78.0005 84.4249C79.2755 85.6999 79.9505 88.0249 79.5505 89.7749L78.1255 95.9249C77.7005 97.6999 77.9754 98.6499 78.2504 98.8749C78.5254 99.0749 79.5254 99.0499 81.0754 98.0999L87.0754 94.5499C88.7504 93.5499 91.2755 93.5499 92.9255 94.5499L98.9005 98.0999C100.475 99.0249 101.475 99.0749 101.75 98.8749C102.025 98.6749 102.3 97.7249 101.875 95.9249L100.45 89.7749C100.05 87.9999 100.7 85.6999 102 84.4249L106.975 79.4499C108 78.4249 108.225 77.5999 108.1 77.2249C107.975 76.8499 107.325 76.2999 105.9 76.0499L99.5255 74.9999C97.8505 74.7249 96.0755 73.4249 95.3255 71.8999L91.8005 64.8499C91.1255 63.4999 90.4005 63.0249 90.0005 63.0249Z" fill="#0B1B3B"></path> <path d="M75 65.375H60C58.975 65.375 58.125 64.525 58.125 63.5C58.125 62.475 58.975 61.625 60 61.625H75C76.025 61.625 76.875 62.475 76.875 63.5C76.875 64.525 76.025 65.375 75 65.375Z" fill="#0B1B3B"></path> <path d="M67.5 100.375H60C58.975 100.375 58.125 99.525 58.125 98.5C58.125 97.475 58.975 96.625 60 96.625H67.5C68.525 96.625 69.375 97.475 69.375 98.5C69.375 99.525 68.525 100.375 67.5 100.375Z" fill="#0B1B3B"></path> <path d="M62.5 82.875H60C58.975 82.875 58.125 82.025 58.125 81C58.125 79.975 58.975 79.125 60 79.125H62.5C63.525 79.125 64.375 79.975 64.375 81C64.375 82.025 63.525 82.875 62.5 82.875Z" fill="#0B1B3B"></path> <defs> <filter id="filter0_d_3_255" x="0" y="0" width="170" height="170" filterUnits="userSpaceOnUse" color-interpolation-filters="sRGB"> <feFlood flood-opacity="0" result="BackgroundImageFix"></feFlood> <feColorMatrix in="SourceAlpha" type="matrix" values="0 0 0 0 0 0 0 0 0 0 0 0 0 0 0 0 0 0 127 0" result="hardAlpha"></feColorMatrix> <feOffset dy="4"></feOffset> <feGaussianBlur stdDeviation="15"></feGaussianBlur> <feComposite in2="hardAlpha" operator="out"></feComposite> <feColorMatrix type="matrix" values="0 0 0 0 0.733542 0 0 0 0 0.738234 0 0 0 0 0.838333 0 0 0 0.37 0"></feColorMatrix> <feBlend mode="normal" in2="BackgroundImageFix" result="effect1_dropShadow_3_255"></feBlend> <feBlend mode="normal" in="SourceGraphic" in2="effect1_dropShadow_3_255" result="shape"></feBlend> </filter> </defs> </svg> 