<?xml version="1.0" encoding="UTF-8"?> <svg xmlns="http://www.w3.org/2000/svg" width="170" height="170" viewBox="0 0 170 170" fill="none"> <g filter="url(#filter0_d_3_251)"> <rect x="30" y="26" width="110" height="110" rx="22" fill="white"></rect> </g> <path d="M85 82.875C77.075 82.875 70.625 76.425 70.625 68.5C70.625 60.575 77.075 54.125 85 54.125C92.925 54.125 99.375 60.575 99.375 68.5C99.375 76.425 92.925 82.875 85 82.875ZM85 57.875C79.15 57.875 74.375 62.65 74.375 68.5C74.375 74.35 79.15 79.125 85 79.125C90.85 79.125 95.625 74.35 95.625 68.5C95.625 62.65 90.85 57.875 85 57.875Z" fill="#0B1B3B"></path> <path d="M63.5254 107.875C62.5004 107.875 61.6504 107.025 61.6504 106C61.6504 95.325 72.1254 86.625 85.0004 86.625C87.5254 86.625 90.0004 86.9501 92.4004 87.6251C93.4004 87.9001 93.9754 88.925 93.7004 89.925C93.4254 90.925 92.4004 91.5001 91.4004 91.2251C89.3504 90.6501 87.2004 90.375 85.0004 90.375C74.2004 90.375 65.4004 97.375 65.4004 106C65.4004 107.025 64.5504 107.875 63.5254 107.875Z" fill="#0B1B3B"></path> <path d="M100 107.875C95.85 107.875 91.95 105.675 89.85 102.1C88.725 100.3 88.125 98.175 88.125 96C88.125 92.35 89.75 88.9749 92.575 86.7249C94.675 85.0499 97.325 84.125 100 84.125C106.55 84.125 111.875 89.45 111.875 96C111.875 98.175 111.275 100.3 110.15 102.125C109.525 103.175 108.725 104.125 107.775 104.925C105.7 106.825 102.925 107.875 100 107.875ZM100 87.875C98.15 87.875 96.4 88.4999 94.925 89.6749C93 91.1999 91.875 93.525 91.875 96C91.875 97.475 92.275 98.925 93.05 100.175C94.5 102.625 97.175 104.125 100 104.125C101.975 104.125 103.875 103.4 105.325 102.1C105.975 101.55 106.525 100.9 106.925 100.2C107.725 98.925 108.125 97.475 108.125 96C108.125 91.525 104.475 87.875 100 87.875Z" fill="#0B1B3B"></path> <path d="M98.5747 100.35C98.0997 100.35 97.6247 100.175 97.2497 99.8002L94.7747 97.3252C94.0497 96.6002 94.0497 95.4001 94.7747 94.6751C95.4997 93.9501 96.6997 93.9501 97.4247 94.6751L98.6247 95.8752L102.625 92.1751C103.375 91.4751 104.575 91.5252 105.275 92.2752C105.975 93.0252 105.925 94.2252 105.175 94.9252L99.8497 99.8501C99.4747 100.175 99.0247 100.35 98.5747 100.35Z" fill="#0B1B3B"></path> <defs> <filter id="filter0_d_3_251" x="0" y="0" width="170" height="170" filterUnits="userSpaceOnUse" color-interpolation-filters="sRGB"> <feFlood flood-opacity="0" result="BackgroundImageFix"></feFlood> <feColorMatrix in="SourceAlpha" type="matrix" values="0 0 0 0 0 0 0 0 0 0 0 0 0 0 0 0 0 0 127 0" result="hardAlpha"></feColorMatrix> <feOffset dy="4"></feOffset> <feGaussianBlur stdDeviation="15"></feGaussianBlur> <feComposite in2="hardAlpha" operator="out"></feComposite> <feColorMatrix type="matrix" values="0 0 0 0 0.733542 0 0 0 0 0.738234 0 0 0 0 0.838333 0 0 0 0.37 0"></feColorMatrix> <feBlend mode="normal" in2="BackgroundImageFix" result="effect1_dropShadow_3_251"></feBlend> <feBlend mode="normal" in="SourceGraphic" in2="effect1_dropShadow_3_251" result="shape"></feBlend> </filter> </defs> </svg> 