<?xml version="1.0" encoding="UTF-8"?> <svg xmlns="http://www.w3.org/2000/svg" width="170" height="170" viewBox="0 0 170 170" fill="none"> <g filter="url(#filter0_d_3_252)"> <rect x="30" y="26" width="110" height="110" rx="22" fill="white"></rect> </g> <path d="M80 95.25H70.525C61.025 95.25 58.125 92.35 58.125 82.85V67.85C58.125 58.35 61.025 55.45 70.525 55.45H96.85C106.35 55.45 109.25 58.35 109.25 67.85C109.25 68.875 108.4 69.725 107.375 69.725C106.35 69.725 105.5 68.875 105.5 67.85C105.5 60.5 104.2 59.2 96.85 59.2H70.525C63.175 59.2 61.875 60.5 61.875 67.85V82.85C61.875 90.2 63.175 91.5 70.525 91.5H80C81.025 91.5 81.875 92.35 81.875 93.375C81.875 94.4 81.025 95.25 80 95.25Z" fill="#0B1B3B"></path> <path d="M80 106.55C78.975 106.55 78.125 105.7 78.125 104.675V93.3501C78.125 92.3251 78.975 91.4751 80 91.4751C81.025 91.4751 81.875 92.3251 81.875 93.3501V104.675C81.875 105.725 81.025 106.55 80 106.55Z" fill="#0B1B3B"></path> <path d="M80 85.25H60C58.975 85.25 58.125 84.4 58.125 83.375C58.125 82.35 58.975 81.5 60 81.5H80C81.025 81.5 81.875 82.35 81.875 83.375C81.875 84.4 81.025 85.25 80 85.25Z" fill="#0B1B3B"></path> <path d="M80 106.55H71.85C70.825 106.55 69.975 105.7 69.975 104.675C69.975 103.65 70.825 102.8 71.85 102.8H80C81.025 102.8 81.875 103.65 81.875 104.675C81.875 105.7 81.025 106.55 80 106.55Z" fill="#0B1B3B"></path> <path d="M102.6 106.55H93.725C86.8 106.55 84.45 104.2 84.45 97.2751V83.0001C84.45 76.0751 86.8 73.7251 93.725 73.7251H102.6C109.525 73.7251 111.875 76.0751 111.875 83.0001V97.2751C111.875 104.225 109.525 106.55 102.6 106.55ZM93.725 77.4751C88.825 77.4751 88.2 78.1001 88.2 83.0001V97.2751C88.2 102.175 88.825 102.8 93.725 102.8H102.6C107.5 102.8 108.125 102.175 108.125 97.2751V83.0001C108.125 78.1001 107.5 77.4751 102.6 77.4751H93.725Z" fill="#0B1B3B"></path> <path d="M98.25 98.425C97.6 98.425 96.95 98.175 96.475 97.7C96.25 97.475 96.075 97.2 95.95 96.9C95.825 96.575 95.75 96.25 95.75 95.925C95.75 95.275 96.025 94.625 96.475 94.175C97.05 93.6 97.925 93.325 98.75 93.475C98.9 93.525 99.05 93.575 99.2 93.625C99.35 93.7 99.5 93.775 99.625 93.85C99.775 93.95 99.9 94.05 100.025 94.175C100.475 94.625 100.75 95.275 100.75 95.925C100.75 96.25 100.675 96.575 100.55 96.9C100.425 97.2 100.25 97.475 100.025 97.7C99.9 97.825 99.775 97.925 99.625 98C99.5 98.1 99.35 98.175 99.2 98.25C99.05 98.3 98.9 98.35 98.75 98.375C98.575 98.425 98.425 98.425 98.25 98.425Z" fill="#0B1B3B"></path> <defs> <filter id="filter0_d_3_252" x="0" y="0" width="170" height="170" filterUnits="userSpaceOnUse" color-interpolation-filters="sRGB"> <feFlood flood-opacity="0" result="BackgroundImageFix"></feFlood> <feColorMatrix in="SourceAlpha" type="matrix" values="0 0 0 0 0 0 0 0 0 0 0 0 0 0 0 0 0 0 127 0" result="hardAlpha"></feColorMatrix> <feOffset dy="4"></feOffset> <feGaussianBlur stdDeviation="15"></feGaussianBlur> <feComposite in2="hardAlpha" operator="out"></feComposite> <feColorMatrix type="matrix" values="0 0 0 0 0.733542 0 0 0 0 0.738234 0 0 0 0 0.838333 0 0 0 0.37 0"></feColorMatrix> <feBlend mode="normal" in2="BackgroundImageFix" result="effect1_dropShadow_3_252"></feBlend> <feBlend mode="normal" in="SourceGraphic" in2="effect1_dropShadow_3_252" result="shape"></feBlend> </filter> </defs> </svg> 