<?xml version="1.0" encoding="UTF-8"?> <svg xmlns="http://www.w3.org/2000/svg" width="170" height="170" viewBox="0 0 170 170" fill="none"> <g filter="url(#filter0_d_3_253)"> <rect x="30" y="26" width="110" height="110" rx="22" fill="white"></rect> </g> <path d="M85 108.875C83.25 108.875 81.475 108.2 80.15 106.875L75.875 102.65C74.8 101.6 73.4 101.025 71.9 101.025H70C64.825 101.025 60.625 96.8499 60.625 91.7249V64.4498C60.625 59.3248 64.825 55.1499 70 55.1499H100C105.175 55.1499 109.375 59.3248 109.375 64.4498V91.7249C109.375 96.8499 105.175 101.025 100 101.025H98.1C96.6 101.025 95.175 101.6 94.125 102.65L89.85 106.875C88.525 108.2 86.75 108.875 85 108.875ZM70 58.8749C66.9 58.8749 64.375 61.3748 64.375 64.4248V91.6999C64.375 94.7749 66.9 97.2498 70 97.2498H71.9C74.4 97.2498 76.75 98.2247 78.525 99.9747L82.8 104.2C84.025 105.4 86 105.4 87.225 104.2L91.5 99.9747C93.275 98.2247 95.625 97.2498 98.125 97.2498H100C103.1 97.2498 105.625 94.7499 105.625 91.6999V64.4248C105.625 61.3498 103.1 58.8749 100 58.8749H70Z" fill="#0B1B3B"></path> <path d="M80.9506 88.275H74.2506C73.1506 88.275 72.1256 87.7499 71.4756 86.8499C70.8506 85.9999 70.7006 84.9501 71.0006 83.9501C71.8756 81.2751 74.0256 79.825 75.9256 78.525C77.9256 77.175 79.0506 76.3251 79.0506 74.8751C79.0506 73.5751 78.0006 72.5249 76.7006 72.5249C75.4006 72.5249 74.3506 73.5751 74.3506 74.8751C74.3506 75.9001 73.5006 76.7501 72.4756 76.7501C71.4506 76.7501 70.6006 75.9001 70.6006 74.8751C70.6006 71.5251 73.3256 68.7749 76.7006 68.7749C80.0756 68.7749 82.8006 71.5001 82.8006 74.8751C82.8006 78.4001 80.1506 80.2 78.0256 81.65C76.7006 82.55 75.4506 83.4 74.8256 84.525H80.9256C81.9506 84.525 82.8006 85.375 82.8006 86.4C82.8006 87.425 81.9756 88.275 80.9506 88.275Z" fill="#0B1B3B"></path> <path d="M95.0997 88.2751C94.0747 88.2751 93.2247 87.4251 93.2247 86.4001V84.675H88.3247C88.3247 84.675 88.3247 84.675 88.2997 84.675C87.0747 84.675 85.9497 84.0251 85.3247 82.9751C84.6997 81.9001 84.6997 80.5751 85.3247 79.5251C87.0247 76.6001 88.9997 73.275 90.7997 70.375C91.5997 69.1 93.1247 68.5251 94.5497 68.9251C95.9747 69.3501 96.9747 70.6502 96.9497 72.1502V80.95H97.4997C98.5247 80.95 99.3747 81.8 99.3747 82.825C99.3747 83.85 98.5247 84.7 97.4997 84.7H96.9747V86.4251C96.9747 87.4501 96.1497 88.2751 95.0997 88.2751ZM93.2247 73.6001C91.7497 76.0001 90.2247 78.575 88.8497 80.925H93.2247V73.6001Z" fill="#0B1B3B"></path> <defs> <filter id="filter0_d_3_253" x="0" y="0" width="170" height="170" filterUnits="userSpaceOnUse" color-interpolation-filters="sRGB"> <feFlood flood-opacity="0" result="BackgroundImageFix"></feFlood> <feColorMatrix in="SourceAlpha" type="matrix" values="0 0 0 0 0 0 0 0 0 0 0 0 0 0 0 0 0 0 127 0" result="hardAlpha"></feColorMatrix> <feOffset dy="4"></feOffset> <feGaussianBlur stdDeviation="15"></feGaussianBlur> <feComposite in2="hardAlpha" operator="out"></feComposite> <feColorMatrix type="matrix" values="0 0 0 0 0.733542 0 0 0 0 0.738234 0 0 0 0 0.838333 0 0 0 0.37 0"></feColorMatrix> <feBlend mode="normal" in2="BackgroundImageFix" result="effect1_dropShadow_3_253"></feBlend> <feBlend mode="normal" in="SourceGraphic" in2="effect1_dropShadow_3_253" result="shape"></feBlend> </filter> </defs> </svg> 