<?xml version="1.0" encoding="UTF-8"?> <svg xmlns="http://www.w3.org/2000/svg" width="170" height="170" viewBox="0 0 170 170" fill="none"> <g filter="url(#filter0_d_3_254)"> <rect x="30" y="26" width="110" height="110" rx="22" fill="white"></rect> </g> <path d="M92.5 107.875H77.5C63.925 107.875 58.125 102.075 58.125 88.5V73.5C58.125 59.925 63.925 54.125 77.5 54.125H92.5C106.075 54.125 111.875 59.925 111.875 73.5V88.5C111.875 102.075 106.075 107.875 92.5 107.875ZM77.5 57.875C65.975 57.875 61.875 61.975 61.875 73.5V88.5C61.875 100.025 65.975 104.125 77.5 104.125H92.5C104.025 104.125 108.125 100.025 108.125 88.5V73.5C108.125 61.975 104.025 57.875 92.5 57.875H77.5Z" fill="#0B1B3B"></path> <path d="M81.9001 91.925C80.8501 91.925 79.8751 91.675 79.0001 91.175C77.0001 90.025 75.8501 87.675 75.8501 84.7V77.3C75.8501 74.35 77.0001 71.975 79.0001 70.825C81.0001 69.675 83.6001 69.85 86.1751 71.35L92.6001 75.05C95.1501 76.525 96.6251 78.7 96.6251 81C96.6251 83.3 95.1501 85.475 92.6001 86.95L86.1751 90.65C84.7251 91.5 83.2501 91.925 81.9001 91.925ZM81.9251 73.825C81.5251 73.825 81.1751 73.9 80.9001 74.075C80.1001 74.55 79.6251 75.725 79.6251 77.3V84.7C79.6251 86.275 80.0751 87.45 80.9001 87.925C81.7001 88.4 82.9501 88.2 84.3251 87.4L90.7501 83.7C92.1251 82.9 92.9001 81.925 92.9001 81C92.9001 80.075 92.1251 79.075 90.7501 78.3L84.3251 74.6C83.4251 74.075 82.6001 73.825 81.9251 73.825Z" fill="#0B1B3B"></path> <defs> <filter id="filter0_d_3_254" x="0" y="0" width="170" height="170" filterUnits="userSpaceOnUse" color-interpolation-filters="sRGB"> <feFlood flood-opacity="0" result="BackgroundImageFix"></feFlood> <feColorMatrix in="SourceAlpha" type="matrix" values="0 0 0 0 0 0 0 0 0 0 0 0 0 0 0 0 0 0 127 0" result="hardAlpha"></feColorMatrix> <feOffset dy="4"></feOffset> <feGaussianBlur stdDeviation="15"></feGaussianBlur> <feComposite in2="hardAlpha" operator="out"></feComposite> <feColorMatrix type="matrix" values="0 0 0 0 0.733542 0 0 0 0 0.738234 0 0 0 0 0.838333 0 0 0 0.37 0"></feColorMatrix> <feBlend mode="normal" in2="BackgroundImageFix" result="effect1_dropShadow_3_254"></feBlend> <feBlend mode="normal" in="SourceGraphic" in2="effect1_dropShadow_3_254" result="shape"></feBlend> </filter> </defs> </svg> 