<svg width="20" height="20" viewBox="0 0 20 20" fill="none" xmlns="http://www.w3.org/2000/svg">
<path d="M13.5667 18.4167H10.4C9.93333 18.4167 8.91667 18.275 8.375 17.7334L5.85 15.7834L6.61667 14.7917L9.2 16.7917C9.40833 16.9917 9.93333 17.1584 10.4 17.1584H13.5667C14.3167 17.1584 15.125 16.5584 15.2917 15.8834L17.3083 9.75837C17.4417 9.3917 17.4167 9.05837 17.2417 8.8167C17.0583 8.55837 16.725 8.40837 16.3167 8.40837H12.9833C12.55 8.40837 12.15 8.22503 11.875 7.90837C11.5917 7.58337 11.4667 7.15003 11.5333 6.70003L11.95 4.02503C12.05 3.55837 11.7333 3.03337 11.2833 2.88337C10.875 2.73337 10.35 2.95003 10.1667 3.2167L6.75 8.30003L5.71667 7.60837L9.13333 2.52503C9.65833 1.7417 10.8083 1.3667 11.7083 1.70837C12.75 2.05003 13.4167 3.20003 13.1833 4.2667L12.775 6.8917C12.7667 6.95003 12.7667 7.03337 12.825 7.10003C12.8667 7.1417 12.925 7.1667 12.9917 7.1667H16.325C17.1417 7.1667 17.85 7.50837 18.2667 8.10003C18.675 8.67503 18.7583 9.43337 18.4917 10.1667L16.5 16.2334C16.1917 17.4417 14.9083 18.4167 13.5667 18.4167Z" fill="#292D32"/>
<path d="M4.48333 17.5H3.65C2.10833 17.5 1.35833 16.775 1.35833 15.2916V7.12496C1.35833 5.64163 2.10833 4.91663 3.65 4.91663H4.48333C6.025 4.91663 6.775 5.64163 6.775 7.12496V15.2916C6.775 16.775 6.025 17.5 4.48333 17.5ZM3.65 6.16663C2.74167 6.16663 2.60833 6.38329 2.60833 7.12496V15.2916C2.60833 16.0333 2.74167 16.25 3.65 16.25H4.48333C5.39167 16.25 5.525 16.0333 5.525 15.2916V7.12496C5.525 6.38329 5.39167 6.16663 4.48333 6.16663H3.65Z" fill="#292D32"/>
</svg>
