<svg width="21" height="21" viewBox="0 0 21 21" fill="none" xmlns="http://www.w3.org/2000/svg">
<g clip-path="url(#clip0_379_1023)">
<path d="M7.41441 6.38983L1.95375 7.18154L1.85704 7.20123C1.71062 7.2401 1.57715 7.31713 1.47025 7.42445C1.36334 7.53177 1.28684 7.66555 1.24854 7.81211C1.21025 7.95867 1.21154 8.11277 1.25228 8.25867C1.29302 8.40458 1.37175 8.53705 1.48044 8.64257L5.43642 12.4933L4.50349 17.9325L4.49236 18.0267C4.4834 18.1781 4.51484 18.3292 4.58347 18.4645C4.6521 18.5998 4.75545 18.7144 4.88294 18.7966C5.01043 18.8788 5.15747 18.9256 5.30902 18.9323C5.46056 18.939 5.61117 18.9053 5.7454 18.8347L10.6292 16.2669L15.5018 18.8347L15.5874 18.874C15.7287 18.9297 15.8822 18.9467 16.0323 18.9235C16.1823 18.9002 16.3235 18.8374 16.4413 18.7416C16.5591 18.6458 16.6492 18.5203 16.7025 18.3782C16.7558 18.236 16.7704 18.0822 16.7446 17.9325L15.8108 12.4933L19.7685 8.64171L19.8353 8.56896C19.9306 8.4515 19.9932 8.31087 20.0165 8.16138C20.0398 8.01189 20.0231 7.85889 19.968 7.71796C19.913 7.57704 19.8215 7.45324 19.703 7.35916C19.5845 7.26508 19.4432 7.20409 19.2935 7.1824L13.8328 6.38983L11.3918 1.44272C11.3212 1.29938 11.2118 1.17868 11.0761 1.09428C10.9404 1.00988 10.7838 0.965149 10.624 0.965149C10.4643 0.965149 10.3077 1.00988 10.172 1.09428C10.0363 1.17868 9.92694 1.29938 9.8563 1.44272L7.41441 6.38983Z" fill="#F6AB19"/>
</g>
<defs>
<clipPath id="clip0_379_1023">
<rect width="20.5417" height="20.5417" fill="white" transform="translate(0.359329 0.107544)"/>
</clipPath>
</defs>
</svg>
