<svg width="20" height="19" viewBox="0 0 20 19" fill="none" xmlns="http://www.w3.org/2000/svg">
<path d="M6.53766 6.33625L1.077 7.12796L0.98028 7.14764C0.833869 7.18651 0.700396 7.26354 0.593491 7.37086C0.486587 7.47819 0.410081 7.61196 0.371787 7.75852C0.333492 7.90508 0.334782 8.05918 0.375523 8.20509C0.416264 8.35099 0.494998 8.48346 0.603683 8.58898L4.55967 12.4397L3.62673 17.8789L3.6156 17.9731C3.60664 18.1245 3.63809 18.2756 3.70672 18.4109C3.77535 18.5462 3.8787 18.6608 4.00618 18.743C4.13367 18.8252 4.28072 18.872 4.43226 18.8787C4.58381 18.8854 4.73441 18.8517 4.86865 18.7811L9.75243 16.2134L14.6251 18.7811L14.7107 18.8204C14.8519 18.8761 15.0055 18.8931 15.1555 18.8699C15.3056 18.8466 15.4467 18.7838 15.5645 18.688C15.6823 18.5922 15.7725 18.4667 15.8258 18.3246C15.8791 18.1824 15.8936 18.0286 15.8679 17.8789L14.9341 12.4397L18.8918 8.58812L18.9585 8.51537C19.0539 8.39792 19.1164 8.25728 19.1397 8.10779C19.163 7.9583 19.1463 7.8053 19.0913 7.66438C19.0362 7.52345 18.9448 7.39965 18.8263 7.30557C18.7078 7.21149 18.5665 7.1505 18.4167 7.12881L12.9561 6.33625L10.515 1.38913C10.4444 1.24579 10.3351 1.12509 10.1994 1.04069C10.0637 0.956292 9.90709 0.91156 9.74729 0.91156C9.5875 0.91156 9.4309 0.956292 9.29521 1.04069C9.15953 1.12509 9.05018 1.24579 8.97955 1.38913L6.53766 6.33625Z" fill="#F6AB19"/>
</svg>
