<svg width="20" height="20" viewBox="0 0 20 20" fill="none" xmlns="http://www.w3.org/2000/svg">
<path d="M4.61668 16.2637C4.10835 16.2637 3.63335 16.0887 3.29168 15.7637C2.85835 15.3554 2.65002 14.7387 2.72502 14.072L3.03335 11.372C3.09168 10.8637 3.40002 10.1887 3.75835 9.82203L10.6 2.58036C12.3083 0.77203 14.0917 0.72203 15.9 2.43036C17.7083 4.1387 17.7583 5.92203 16.05 7.73036L9.20835 14.972C8.85835 15.347 8.20835 15.697 7.70002 15.7804L5.01668 16.2387C4.87502 16.247 4.75002 16.2637 4.61668 16.2637ZM13.275 2.42203C12.6333 2.42203 12.075 2.82203 11.5083 3.42203L4.66668 10.672C4.50002 10.847 4.30835 11.2637 4.27502 11.5054L3.96668 14.2054C3.93335 14.4804 4.00002 14.7054 4.15002 14.847C4.30002 14.9887 4.52502 15.0387 4.80002 14.997L7.48335 14.5387C7.72502 14.497 8.12502 14.2804 8.29168 14.1054L15.1333 6.8637C16.1667 5.7637 16.5417 4.74703 15.0333 3.33036C14.3667 2.6887 13.7917 2.42203 13.275 2.42203Z" fill="#292D32"/>
<path d="M14.45 9.12211C14.4334 9.12211 14.4084 9.12211 14.3917 9.12211C11.7917 8.86377 9.70002 6.88877 9.30002 4.30544C9.25002 3.96377 9.48335 3.64711 9.82502 3.58877C10.1667 3.53877 10.4834 3.77211 10.5417 4.11377C10.8584 6.13044 12.4917 7.68044 14.525 7.88044C14.8667 7.91377 15.1167 8.22211 15.0834 8.56377C15.0417 8.88044 14.7667 9.12211 14.45 9.12211Z" fill="#292D32"/>
<path d="M17.5 18.9554H2.50002C2.15835 18.9554 1.87502 18.6721 1.87502 18.3304C1.87502 17.9888 2.15835 17.7054 2.50002 17.7054H17.5C17.8417 17.7054 18.125 17.9888 18.125 18.3304C18.125 18.6721 17.8417 18.9554 17.5 18.9554Z" fill="#292D32"/>
</svg>
