<svg width="20" height="20" viewBox="0 0 20 20" fill="none" xmlns="http://www.w3.org/2000/svg">
<path d="M10.125 16.1221C9.78335 16.1221 9.50002 15.8387 9.50002 15.4971V13.7471C9.50002 13.4054 9.78335 13.1221 10.125 13.1221C10.4667 13.1221 10.75 13.4054 10.75 13.7471V15.4971C10.75 15.8387 10.4667 16.1221 10.125 16.1221Z" fill="white"/>
<path d="M14.9167 18.9554H5.33335V17.4971C5.33335 16.2304 6.35835 15.2054 7.62501 15.2054H12.625C13.8917 15.2054 14.9167 16.2304 14.9167 17.4971V18.9554ZM6.58335 17.7054H13.6667V17.4971C13.6667 16.9221 13.2 16.4554 12.625 16.4554H7.62501C7.05001 16.4554 6.58335 16.9221 6.58335 17.4971V17.7054Z" fill="white"/>
<path d="M15.125 18.9554H5.12502C4.78335 18.9554 4.50002 18.6721 4.50002 18.3304C4.50002 17.9888 4.78335 17.7054 5.12502 17.7054H15.125C15.4667 17.7054 15.75 17.9888 15.75 18.3304C15.75 18.6721 15.4667 18.9554 15.125 18.9554Z" fill="white"/>
<path d="M15.3583 10.3637C15.1833 10.3637 15.0083 10.2887 14.8833 10.1471C14.725 9.96375 14.6833 9.70541 14.7833 9.48875C15.0667 8.83875 15.2083 8.14708 15.2083 7.42208V4.92208C15.2083 4.63041 15.1583 4.34708 15.0583 4.04708C15.05 4.02208 15.0417 3.98875 15.0333 3.95541C15.0083 3.83041 15 3.70541 15 3.58875C15 3.24708 15.2833 2.96375 15.625 2.96375H16.125C17.6167 2.96375 18.8333 4.21374 18.8333 5.75541C18.8333 7.03041 18.3083 8.28874 17.4 9.19708C17.3833 9.21375 17.3333 9.25541 17.325 9.26374C16.8333 9.67208 16.275 10.1304 15.525 10.3387C15.4667 10.3554 15.4167 10.3637 15.3583 10.3637ZM16.4 4.23875C16.4417 4.46375 16.4583 4.69708 16.4583 4.92208V7.42208C16.4583 7.76374 16.4333 8.08874 16.3833 8.42208C16.4333 8.38041 16.475 8.34708 16.525 8.30541C17.1917 7.63875 17.5833 6.70541 17.5833 5.75541C17.5833 5.00541 17.075 4.37208 16.4 4.23875Z" fill="white"/>
<path d="M4.65002 10.3304C4.58335 10.3304 4.52502 10.3221 4.45835 10.2971C3.77502 10.0804 3.13335 9.6804 2.60002 9.14707C1.64168 8.08874 1.16668 6.9304 1.16668 5.7054C1.16668 4.18874 2.35835 2.99707 3.87502 2.99707H4.41668C4.62502 2.99707 4.82502 3.1054 4.94168 3.2804C5.05835 3.4554 5.07502 3.6804 4.99168 3.87207C4.85835 4.17207 4.79168 4.51374 4.79168 4.87207V7.37207C4.79168 8.08874 4.93335 8.78874 5.22502 9.4554C5.32502 9.6804 5.27502 9.93874 5.11668 10.1221C4.99168 10.2554 4.82502 10.3304 4.65002 10.3304ZM3.58335 4.27207C2.90835 4.4054 2.41668 4.98874 2.41668 5.7054C2.41668 6.61374 2.78335 7.48874 3.50835 8.28874C3.54168 8.3304 3.58335 8.36374 3.62502 8.39707C3.56668 8.0554 3.54168 7.71374 3.54168 7.37207V4.87207C3.54168 4.67207 3.55835 4.47207 3.58335 4.27207Z" fill="white"/>
<path d="M10 13.9554C6.44168 13.9554 3.54168 11.0554 3.54168 7.49703V4.99703C3.54168 2.8137 5.31668 1.0387 7.50002 1.0387H12.5C14.6834 1.0387 16.4584 2.8137 16.4584 4.99703V7.49703C16.4584 11.0554 13.5584 13.9554 10 13.9554ZM7.50002 2.2887C6.00835 2.2887 4.79168 3.50536 4.79168 4.99703V7.49703C4.79168 10.372 7.12502 12.7054 10 12.7054C12.875 12.7054 15.2084 10.372 15.2084 7.49703V4.99703C15.2084 3.50536 13.9917 2.2887 12.5 2.2887H7.50002Z" fill="white"/>
</svg>
