<?xml version="1.0" encoding="UTF-8"?> <svg xmlns="http://www.w3.org/2000/svg" width="49" height="49" viewBox="0 0 49 49" fill="none"> <rect width="49" height="49" rx="24.5" fill="white"></rect> <path d="M30.9743 16.3208C30.9743 16.3208 32.9994 15.531 32.83 17.4488C32.7743 18.2385 32.2681 21.0029 31.874 23.9924L30.5239 32.8489C30.5239 32.8489 30.4113 34.1463 29.3985 34.372C28.3861 34.5972 26.8671 33.5823 26.5857 33.3566C26.3605 33.1872 22.3664 30.6486 20.96 29.4079C20.566 29.0691 20.1156 28.3925 21.0163 27.6027L26.9229 21.9615C27.598 21.2849 28.273 19.7054 25.4602 21.6232L17.5837 26.9819C17.5837 26.9819 16.6835 27.5464 14.9961 27.0387L11.3388 25.9102C11.3388 25.9102 9.98874 25.0641 12.2954 24.2181C17.9215 21.5669 24.8415 18.8594 30.9732 16.3208H30.9743Z" fill="#818B9F"></path> </svg> 