<svg width="20" height="20" viewBox="0 0 20 20" fill="none" xmlns="http://www.w3.org/2000/svg">
<path d="M10.7333 17.3804H5.67502C2.71668 17.3804 1.66668 15.3054 1.66668 13.3721V6.6221C1.66668 3.73877 2.79168 2.61377 5.67502 2.61377H10.7333C13.6167 2.61377 14.7417 3.73877 14.7417 6.6221V13.3721C14.7417 16.2554 13.6167 17.3804 10.7333 17.3804ZM5.67502 3.88044C3.50002 3.88044 2.93335 4.4471 2.93335 6.6221V13.3721C2.93335 14.3971 3.29168 16.1138 5.67502 16.1138H10.7333C12.9083 16.1138 13.475 15.5471 13.475 13.3721V6.6221C13.475 4.4471 12.9083 3.88044 10.7333 3.88044H5.67502Z" fill="white"/>
<path d="M17.3166 15.0888C16.9583 15.0888 16.5 14.9721 15.975 14.6054L13.75 13.0471C13.5833 12.9304 13.4833 12.7388 13.4833 12.5304V7.46377C13.4833 7.25544 13.5833 7.06377 13.75 6.94711L15.975 5.38877C16.9666 4.69711 17.6916 4.89711 18.0333 5.07211C18.375 5.25544 18.9583 5.73044 18.9583 6.93877V13.0471C18.9583 14.2554 18.375 14.7388 18.0333 14.9138C17.875 15.0054 17.625 15.0888 17.3166 15.0888ZM14.7416 12.1971L16.7 13.5638C17.075 13.8221 17.3416 13.8471 17.45 13.7888C17.5666 13.7304 17.6916 13.4971 17.6916 13.0471V6.94711C17.6916 6.48877 17.5583 6.26377 17.45 6.20544C17.3416 6.14711 17.075 6.17211 16.7 6.43044L14.7416 7.79711V12.1971Z" fill="white"/>
<path d="M9.58335 9.7887C8.55001 9.7887 7.70835 8.94703 7.70835 7.9137C7.70835 6.88036 8.55001 6.0387 9.58335 6.0387C10.6167 6.0387 11.4583 6.88036 11.4583 7.9137C11.4583 8.94703 10.6167 9.7887 9.58335 9.7887ZM9.58335 7.2887C9.24168 7.2887 8.95835 7.57203 8.95835 7.9137C8.95835 8.25536 9.24168 8.5387 9.58335 8.5387C9.92501 8.5387 10.2083 8.25536 10.2083 7.9137C10.2083 7.57203 9.92501 7.2887 9.58335 7.2887Z" fill="white"/>
</svg>
