<svg width="49" height="49" viewBox="0 0 49 49" fill="none" xmlns="http://www.w3.org/2000/svg">
<rect width="49" height="49" rx="24.5" fill="white"/>
<path d="M33.8862 31.674H31.5082C30.6084 31.674 30.3374 30.9453 28.7246 29.3314C27.315 27.973 26.7197 27.8041 26.3632 27.8041C25.87 27.8041 25.7356 27.9396 25.7356 28.6183V30.7576C25.7356 31.3362 25.5479 31.6751 24.0362 31.6751C22.5696 31.5765 21.1474 31.131 19.8868 30.3752C18.6262 29.6193 17.5631 28.5748 16.7852 27.3276C14.9382 25.0288 13.6531 22.3307 13.032 19.448C13.032 19.0915 13.1676 18.7683 13.8473 18.7683H16.2243C16.8353 18.7683 17.0553 19.0404 17.295 19.669C18.4491 23.0657 20.4185 26.0203 21.2182 26.0203C21.5247 26.0203 21.6581 25.8847 21.6581 25.1205V21.6217C21.557 20.0256 20.7094 19.8911 20.7094 19.3135C20.7201 19.1611 20.7898 19.0189 20.9037 18.9171C21.0176 18.8153 21.1667 18.7619 21.3193 18.7683H25.0558C25.5667 18.7683 25.7356 19.0226 25.7356 19.6336V24.3563C25.7356 24.8662 25.9545 25.035 26.1088 25.035C26.4153 25.035 26.6509 24.8662 27.2129 24.3053C28.4174 22.8363 29.4014 21.1997 30.1341 19.447C30.2091 19.2365 30.3508 19.0564 30.5378 18.934C30.7247 18.8117 30.9465 18.7538 31.1693 18.7693H33.5474C34.2605 18.7693 34.4117 19.1259 34.2605 19.6346C33.3956 21.5721 32.3254 23.4113 31.0682 25.1205C30.8117 25.5115 30.7096 25.7148 31.0682 26.1735C31.3038 26.5301 32.1379 27.2265 32.6977 27.8885C33.513 28.7017 34.1896 29.6421 34.7015 30.6721C34.9058 31.3352 34.5649 31.674 33.8862 31.674Z" fill="#818B9F"/>
</svg>
