<svg width="49" height="49" viewBox="0 0 49 49" fill="none" xmlns="http://www.w3.org/2000/svg">
<rect width="49" height="49" rx="24.5" fill="white"/>
<path d="M32.3714 16.5869C31.4156 15.6214 30.2771 14.8559 29.0223 14.335C27.7676 13.8141 26.4217 13.5483 25.0631 13.553C19.3707 13.553 14.7314 18.1924 14.7314 23.8847C14.7314 25.7092 15.211 27.4816 16.1076 29.0454L14.648 34.4041L20.1214 32.9654C21.6331 33.789 23.3324 34.2269 25.0631 34.2269C30.7554 34.2269 35.3948 29.5875 35.3948 23.8952C35.3948 21.1324 34.321 18.5364 32.3714 16.5869ZM25.0631 32.4754C23.5201 32.4754 22.0084 32.0584 20.6844 31.2764L20.3716 31.0888L17.1188 31.9437L17.9841 28.7743L17.7756 28.4511C16.9184 27.0822 16.4632 25.4999 16.462 23.8847C16.462 19.1516 20.3195 15.2941 25.0527 15.2941C27.3463 15.2941 29.5044 16.1907 31.1203 17.8171C31.9205 18.6136 32.5546 19.5609 32.9859 20.6043C33.4172 21.6476 33.6371 22.7662 33.6329 23.8952C33.6537 28.6284 29.7963 32.4754 25.0631 32.4754ZM29.7754 26.0533C29.5148 25.9281 28.2429 25.3026 28.0135 25.2088C27.7737 25.1254 27.6069 25.0837 27.4297 25.3339C27.2524 25.5945 26.7624 26.1784 26.6165 26.3452C26.4705 26.5224 26.3141 26.5433 26.0535 26.4077C25.7929 26.2826 24.9588 26.0011 23.9788 25.1254C23.2073 24.4373 22.6965 23.5928 22.5401 23.3322C22.3941 23.0716 22.5193 22.936 22.6548 22.8005C22.7695 22.6858 22.9154 22.4981 23.0405 22.3522C23.1656 22.2062 23.2178 22.0916 23.3012 21.9247C23.3846 21.7475 23.3429 21.6016 23.2803 21.4764C23.2178 21.3513 22.6965 20.0794 22.488 19.5581C22.2795 19.0577 22.0605 19.1203 21.9042 19.1098H21.4037C21.2265 19.1098 20.9554 19.1724 20.7156 19.433C20.4863 19.6937 19.819 20.3192 19.819 21.5911C19.819 22.863 20.7469 24.0933 20.872 24.2601C20.9971 24.4373 22.6965 27.0437 25.282 28.1592C25.8971 28.4303 26.3767 28.5867 26.752 28.7013C27.3671 28.8994 27.9301 28.8681 28.3784 28.8056C28.8788 28.7326 29.911 28.1801 30.1195 27.5754C30.3384 26.9707 30.3384 26.4598 30.2654 26.3452C30.1924 26.2305 30.0361 26.1784 29.7754 26.0533Z" fill="#818B9F"/>
</svg>
